<svg width="76" height="77" viewBox="0 0 76 77" fill="none" xmlns="http://www.w3.org/2000/svg">
<path d="M13.1169 10.4992L8.81011 15.8384L9.69774 0.949554L13.1169 10.4992Z" fill="#006F8B"/>
<rect y="1.00001" width="75.5906" height="75.5906" rx="37.7953" fill="#006F8B"/>
<path fill-rule="evenodd" clip-rule="evenodd" d="M37.7868 17.2918C32.3365 17.2918 26.8989 19.1501 22.4706 22.8658C19.8054 25.1023 17.7454 27.8235 16.3148 30.8033C16.1163 30.7844 15.9231 30.7413 15.7192 30.7413C12.1594 30.7413 9.29313 33.6075 9.29313 37.1673V45.1094C9.29313 48.6691 12.1594 51.5353 15.7192 51.5353C15.9231 51.5353 16.1163 51.4911 16.3148 51.4734C16.571 52.0043 16.836 52.5313 17.1347 53.049C18.3023 55.133 21.4218 53.3487 20.2172 51.2857C15.2851 42.7429 17.1952 31.9176 24.7516 25.577C32.3081 19.2363 43.2839 19.2363 50.8403 25.577C58.3968 31.9176 60.307 42.7427 55.3748 51.2857L55.3216 51.3741L55.286 51.4626C55.286 51.4626 52.8906 56.7619 48.1868 56.7619L42.2326 56.7086C41.6742 55.8931 40.7805 55.3253 39.7135 55.3253H35.8752C34.1543 55.3253 32.7698 56.7143 32.7698 58.4353C32.7698 59.4969 33.4434 60.3029 34.9849 60.3029L48.1868 60.304C55.2454 60.304 58.2983 53.3742 58.4373 53.0536V53.0346C58.7333 52.5215 58.9939 51.9945 59.2482 51.4683C59.4557 51.4872 59.6577 51.5302 59.8713 51.5302C63.4311 51.5302 66.2974 48.664 66.2974 45.1043V37.1622C66.2974 33.6025 63.4311 30.7362 59.8713 30.7362C59.6657 30.7362 59.4716 30.7702 59.2713 30.7982C57.844 27.8182 55.7902 25.0973 53.1246 22.8606C48.6965 19.1449 43.2361 17.2866 37.7856 17.2866L37.7868 17.2918ZM30.0417 28.5819C28.6584 28.4916 27.3947 28.7841 26.2906 29.9468C23.3461 33.0467 21.5271 37.2659 21.5271 41.7591C21.5271 45.4654 22.7658 49.6183 24.8523 49.7699C27.825 49.986 32.5159 48.034 37.796 48.034C43.3913 48.034 48.3289 50.2243 51.2572 49.7058C53.0318 49.3921 54.0694 45.1501 54.0694 41.7591C54.0694 37.2659 52.2459 33.0467 49.3014 29.9468C46.357 26.8468 42.2891 29.9468 37.796 29.9468C34.9878 29.9468 32.3472 28.7333 30.0417 28.5819ZM29.3823 36.2216C31.0238 36.2222 32.3543 37.5527 32.3549 39.1943C32.3543 40.8357 31.0238 42.1662 29.3823 42.1668C27.7409 42.1662 26.4103 40.8357 26.4098 39.1943C26.4103 37.5527 27.7409 36.2222 29.3823 36.2216ZM46.2099 36.2216C47.8515 36.2222 49.1819 37.5527 49.1826 39.1943C49.1819 40.8357 47.8515 42.1662 46.2099 42.1668C44.5685 42.1662 43.238 40.8357 43.2374 39.1943C43.238 37.5527 44.5685 36.2222 46.2099 36.2216Z" fill="white"/>
</svg>
