<svg width="70" height="67" viewBox="0 0 70 67" fill="none" xmlns="http://www.w3.org/2000/svg">
<path fill-rule="evenodd" clip-rule="evenodd" d="M34.7783 0C53.9729 0 69.5566 14.8307 69.5566 33.098C69.5566 51.3654 53.9729 66.1964 34.7783 66.1964C15.5836 66.1964 0 51.3654 0 33.098C0 14.8307 15.5836 0 34.7783 0Z" fill="#CB9B5A"/>
<mask id="mask0_1_98" style="mask-type:luminance" maskUnits="userSpaceOnUse" x="15" y="33" width="51" height="34">
<path d="M15.1229 33.4767H65.2229V66.21H15.1229V33.4767Z" fill="white"/>
</mask>
<g mask="url(#mask0_1_98)">
<mask id="mask1_1_98" style="mask-type:luminance" maskUnits="userSpaceOnUse" x="0" y="0" width="70" height="67">
<path fill-rule="evenodd" clip-rule="evenodd" d="M34.7783 -7.62939e-06C53.9729 -7.62939e-06 69.5567 14.8307 69.5567 33.098C69.5567 51.3654 53.9729 66.1963 34.7783 66.1963C15.5836 66.1963 7.62939e-06 51.3654 7.62939e-06 33.098C7.62939e-06 14.8307 15.5836 -7.62939e-06 34.7783 -7.62939e-06Z" fill="white"/>
</mask>
<g mask="url(#mask1_1_98)">
<path fill-rule="evenodd" clip-rule="evenodd" d="M29.1945 40.8017C29.1945 40.8017 26.4856 43.996 25.0596 43.268C22.7919 42.1096 17.7242 52.422 16.9579 57.8047C16.3484 62.0861 15.1466 61.9115 15.1466 61.9115C15.1466 61.9115 59.9953 85.3137 65.2103 51.351C65.2103 51.351 54.3892 39.3457 52.108 40.0737C52.108 40.0737 48.9975 35.3687 48.6392 33.5714C48.2813 31.7741 19.4596 63.907 19.4596 63.907L29.9013 41.4803C29.9013 41.4803 30.4663 40.1233 29.1945 40.8017Z" fill="#986217"/>
</g>
</g>
<mask id="mask2_1_98" style="mask-type:luminance" maskUnits="userSpaceOnUse" x="18" y="33" width="30" height="32">
<path d="M18.9896 33.8767H47.4229V64.4767H18.9896V33.8767Z" fill="white"/>
</mask>
<g mask="url(#mask2_1_98)">
<mask id="mask3_1_98" style="mask-type:luminance" maskUnits="userSpaceOnUse" x="0" y="0" width="70" height="67">
<path fill-rule="evenodd" clip-rule="evenodd" d="M34.7783 0C53.9729 0 69.5567 14.8307 69.5567 33.098C69.5567 51.3654 53.9729 66.1964 34.7783 66.1964C15.5836 66.1964 7.62939e-06 51.3654 7.62939e-06 33.098C7.62939e-06 14.8307 15.5836 0 34.7783 0Z" fill="white"/>
</mask>
<g mask="url(#mask3_1_98)">
<path fill-rule="evenodd" clip-rule="evenodd" d="M47.2186 34.2523C47.7372 31.8827 33.2505 41.8167 31.3783 45.5301C31.3783 45.5301 30.8676 40.1801 29.5413 41.1201C24.4286 49.3857 16.7741 60.6357 19.6036 64.4538C18.8561 64.4538 42.7483 36.384 47.4076 34.2523" fill="#D19D79"/>
</g>
</g>
<mask id="mask4_1_98" style="mask-type:luminance" maskUnits="userSpaceOnUse" x="15" y="40" width="15" height="25">
<path d="M15.9229 40.0434H29.9229V64.4767H15.9229V40.0434Z" fill="white"/>
</mask>
<g mask="url(#mask4_1_98)">
<mask id="mask5_1_98" style="mask-type:luminance" maskUnits="userSpaceOnUse" x="0" y="0" width="70" height="67">
<path fill-rule="evenodd" clip-rule="evenodd" d="M34.7783 -3.8147e-06C53.9729 -3.8147e-06 69.5567 14.8307 69.5567 33.098C69.5567 51.3654 53.9729 66.1964 34.7783 66.1964C15.5836 66.1964 2.28882e-05 51.3654 2.28882e-05 33.098C2.28882e-05 14.8307 15.5836 -3.8147e-06 34.7783 -3.8147e-06Z" fill="white"/>
</mask>
<g mask="url(#mask5_1_98)">
<path fill-rule="evenodd" clip-rule="evenodd" d="M29.9013 40.0737C29.9013 40.0737 15.9419 54.9822 15.9288 57.8047C15.9156 60.6272 18.5728 64.4538 18.5728 64.4538C18.5728 64.4538 27.1696 48.381 29.9013 40.0737Z" fill="#875714"/>
</g>
</g>
<mask id="mask6_1_98" style="mask-type:luminance" maskUnits="userSpaceOnUse" x="16" y="6" width="22" height="28">
<path d="M16.9563 6.57669H37.7896V33.5767H16.9563V6.57669Z" fill="white"/>
</mask>
<g mask="url(#mask6_1_98)">
<mask id="mask7_1_98" style="mask-type:luminance" maskUnits="userSpaceOnUse" x="0" y="0" width="70" height="67">
<path fill-rule="evenodd" clip-rule="evenodd" d="M34.7783 -3.8147e-06C53.9729 -3.8147e-06 69.5567 14.8307 69.5567 33.098C69.5567 51.3654 53.9729 66.1964 34.7783 66.1964C15.5836 66.1964 1.52588e-05 51.3654 1.52588e-05 33.098C1.52588e-05 14.8307 15.5836 -3.8147e-06 34.7783 -3.8147e-06Z" fill="white"/>
</mask>
<g mask="url(#mask7_1_98)">
<path fill-rule="evenodd" clip-rule="evenodd" d="M27.0383 8.36901C27.0383 8.36901 21.7276 13.523 21.0772 15.4134L20.2313 14.8917C20.2313 14.8917 19.7249 16.8474 21.7956 17.8254C21.7956 17.8254 18.7319 23.6271 17.5585 24.2137C16.385 24.8004 16.9048 26.657 19.3503 26.356C21.7956 26.0547 23.8663 31.9057 23.8663 33.4703C23.8663 35.0346 37.7013 18.025 37.7666 13.197C37.8317 8.36901 31.368 4.06263 27.0383 8.36901Z" fill="#E7CFBC"/>
</g>
</g>
<mask id="mask8_1_98" style="mask-type:luminance" maskUnits="userSpaceOnUse" x="18" y="14" width="7" height="5">
<path d="M18.5896 14.5767H24.9896V18.8767H18.5896V14.5767Z" fill="white"/>
</mask>
<g mask="url(#mask8_1_98)">
<mask id="mask9_1_98" style="mask-type:luminance" maskUnits="userSpaceOnUse" x="16" y="6" width="22" height="28">
<path fill-rule="evenodd" clip-rule="evenodd" d="M27.0383 8.36901C27.0383 8.36901 21.7276 13.523 21.0772 15.4134L20.2313 14.8917C20.2313 14.8917 19.7249 16.8474 21.7956 17.8254C21.7956 17.8254 18.7319 23.6271 17.5585 24.2137C16.385 24.8004 16.9048 26.657 19.3503 26.356C21.7956 26.0547 23.8663 31.9057 23.8663 33.4703C23.8663 35.0346 37.7013 18.025 37.7666 13.197C37.8317 8.36901 31.368 4.06263 27.0383 8.36901Z" fill="white"/>
</mask>
<g mask="url(#mask9_1_98)">
<mask id="mask10_1_98" style="mask-type:luminance" maskUnits="userSpaceOnUse" x="0" y="0" width="70" height="67">
<path fill-rule="evenodd" clip-rule="evenodd" d="M34.7783 -3.8147e-06C53.9729 -3.8147e-06 69.5567 14.8307 69.5567 33.098C69.5567 51.3654 53.9729 66.1964 34.7783 66.1964C15.5836 66.1964 1.52588e-05 51.3654 1.52588e-05 33.098C1.52588e-05 14.8307 15.5836 -3.8147e-06 34.7783 -3.8147e-06Z" fill="white"/>
</mask>
<g mask="url(#mask10_1_98)">
<path fill-rule="evenodd" clip-rule="evenodd" d="M21.0772 15.4134C21.0772 15.4134 24.5746 16.241 24.9313 18.8504C24.9313 18.8504 25.6093 19.071 21.7956 17.8254C18.3005 16.6837 17.1534 12.9301 21.0772 15.4134Z" fill="#986217"/>
</g>
</g>
</g>
<mask id="mask11_1_98" style="mask-type:luminance" maskUnits="userSpaceOnUse" x="25" y="22" width="24" height="25">
<path d="M25.9229 22.51H48.8229V46.0767H25.9229V22.51Z" fill="white"/>
</mask>
<g mask="url(#mask11_1_98)">
<mask id="mask12_1_98" style="mask-type:luminance" maskUnits="userSpaceOnUse" x="0" y="0" width="70" height="67">
<path fill-rule="evenodd" clip-rule="evenodd" d="M34.7783 0C53.9729 0 69.5567 14.8307 69.5567 33.098C69.5567 51.3654 53.9729 66.1964 34.7783 66.1964C15.5836 66.1964 2.28882e-05 51.3654 2.28882e-05 33.098C2.28882e-05 14.8307 15.5836 0 34.7783 0Z" fill="white"/>
</mask>
<g mask="url(#mask12_1_98)">
<path fill-rule="evenodd" clip-rule="evenodd" d="M25.9559 38.5664C25.9559 38.5664 32.4862 41.9447 31.3783 45.5301C30.2699 49.1154 44.0896 32.8617 47.2186 34.2523C50.3476 35.6434 47.8052 33.9267 48.1966 28.8421C48.5877 23.7574 32.0067 13.8527 25.9559 38.5664Z" fill="#E7CFBC"/>
</g>
</g>
<mask id="mask13_1_98" style="mask-type:luminance" maskUnits="userSpaceOnUse" x="18" y="32" width="35" height="35">
<path d="M18.5563 32.8767H52.7896V66.21H18.5563V32.8767Z" fill="white"/>
</mask>
<g mask="url(#mask13_1_98)">
<mask id="mask14_1_98" style="mask-type:luminance" maskUnits="userSpaceOnUse" x="0" y="0" width="70" height="67">
<path fill-rule="evenodd" clip-rule="evenodd" d="M34.7783 0C53.9729 0 69.5567 14.8307 69.5567 33.098C69.5567 51.3654 53.9729 66.1964 34.7783 66.1964C15.5836 66.1964 2.28882e-05 51.3654 2.28882e-05 33.098C2.28882e-05 14.8307 15.5836 0 34.7783 0Z" fill="white"/>
</mask>
<g mask="url(#mask14_1_98)">
<path fill-rule="evenodd" clip-rule="evenodd" d="M52.108 40.0737L44.0246 53.6327L36.6582 51.6346L41.743 58.7173L19.3185 66.279L18.5728 64.4538C18.5728 64.4538 45.7436 30.8244 48.5039 32.994C50.4976 34.5617 51.7153 40.741 52.7746 40.0737" fill="#875714"/>
</g>
</g>
<mask id="mask15_1_98" style="mask-type:luminance" maskUnits="userSpaceOnUse" x="18" y="3" width="33" height="36">
<path d="M18.5563 3.91002H50.9229V38.8767H18.5563V3.91002Z" fill="white"/>
</mask>
<g mask="url(#mask15_1_98)">
<mask id="mask16_1_98" style="mask-type:luminance" maskUnits="userSpaceOnUse" x="0" y="0" width="70" height="67">
<path fill-rule="evenodd" clip-rule="evenodd" d="M34.7783 -7.62939e-06C53.9729 -7.62939e-06 69.5567 14.8307 69.5567 33.098C69.5567 51.3654 53.9729 66.1963 34.7783 66.1963C15.5836 66.1963 2.28882e-05 51.3654 2.28882e-05 33.098C2.28882e-05 14.8307 15.5836 -7.62939e-06 34.7783 -7.62939e-06Z" fill="white"/>
</mask>
<g mask="url(#mask16_1_98)">
<path fill-rule="evenodd" clip-rule="evenodd" d="M27.0383 8.369C27.0383 8.369 24.492 5.56796 27.6746 4.42239C30.8576 3.27629 35.9505 4.42239 37.4783 4.42239C39.0063 4.42239 49.7009 7.98697 50.465 12.9527C50.465 12.9527 52.3746 23.0107 48.1733 30.268C48.1733 30.268 42.4436 27.7217 41.1706 30.268C41.1706 30.268 38.2779 19.7997 36.2229 27.7217C34.168 35.6434 24.7462 42.2921 18.6351 36.9167C18.6351 36.9167 18.2103 31.3423 19.5793 31.9944C19.5793 31.9944 28.3142 30.3647 30.5309 25.4756C32.7473 20.5867 31.2877 11.2594 34.5723 10.287C34.5723 10.287 28.239 10.06 27.0383 8.369Z" fill="#986217"/>
</g>
</g>
<mask id="mask17_1_98" style="mask-type:luminance" maskUnits="userSpaceOnUse" x="18" y="26" width="6" height="9">
<path d="M18.2563 26.0434H23.8896V34.2767H18.2563V26.0434Z" fill="white"/>
</mask>
<g mask="url(#mask17_1_98)">
<mask id="mask18_1_98" style="mask-type:luminance" maskUnits="userSpaceOnUse" x="0" y="0" width="70" height="67">
<path fill-rule="evenodd" clip-rule="evenodd" d="M34.7783 -7.62939e-06C53.9729 -7.62939e-06 69.5566 14.8307 69.5566 33.098C69.5566 51.3654 53.9729 66.1963 34.7783 66.1963C15.5836 66.1963 0 51.3654 0 33.098C0 14.8307 15.5836 -7.62939e-06 34.7783 -7.62939e-06Z" fill="white"/>
</mask>
<g mask="url(#mask18_1_98)">
<path fill-rule="evenodd" clip-rule="evenodd" d="M20.3616 26.1694C20.3616 26.1694 17.3707 25.9087 18.5728 30.0154C18.5728 30.0154 20.3616 31.319 20.3616 34.2523C20.3616 34.2523 23.0992 33.8613 23.7513 31.319C24.4033 28.7767 22.1503 25.387 20.3616 26.1694Z" fill="#875714"/>
</g>
</g>
<mask id="mask19_1_98" style="mask-type:luminance" maskUnits="userSpaceOnUse" x="34" y="18" width="7" height="11">
<path d="M34.4563 18.3767H40.8896V28.7434H34.4563V18.3767Z" fill="white"/>
</mask>
<g mask="url(#mask19_1_98)">
<mask id="mask20_1_98" style="mask-type:luminance" maskUnits="userSpaceOnUse" x="0" y="0" width="70" height="67">
<path fill-rule="evenodd" clip-rule="evenodd" d="M34.7783 0C53.9729 0 69.5567 14.8307 69.5567 33.098C69.5567 51.3654 53.9729 66.1964 34.7783 66.1964C15.5836 66.1964 1.52588e-05 51.3654 1.52588e-05 33.098C1.52588e-05 14.8307 15.5836 0 34.7783 0Z" fill="white"/>
</mask>
<g mask="url(#mask20_1_98)">
<path fill-rule="evenodd" clip-rule="evenodd" d="M37.0313 18.572C37.0313 18.572 44.0636 16.6397 39.0716 25.446C34.08 34.2523 32.7779 23.0861 37.0313 18.572Z" fill="#E7CFBC"/>
</g>
</g>
</svg>
